<svg xmlns="http://www.w3.org/2000/svg" viewBox="0 0 489 166.55"><defs><style>.cls-1{fill:#115888;}</style></defs><title>ANMATRecurso 2</title><g id="Capa_2" data-name="Capa 2"><g id="Capa_1-2" data-name="Capa 1"><path class="cls-1" d="M215.74,43.88a41.24,41.24,0,0,1,5-6.2c5.85-5.79,12.89-8,21-7.24a29,29,0,0,1,17.92,7.92c5.54,5.34,8.12,12,8.69,19.58.28,3.66.11,7.33.12,11,0,11.64,0,23.28,0,34.92,0,1-.22,1.33-1.27,1.3-2.56-.08-5.13-.08-7.69,0-1.05,0-1.25-.31-1.25-1.3q0-21.84,0-43.7a23.12,23.12,0,0,0-3.05-11.78c-3.9-6.72-10.51-9.87-18.17-8.37-7.86,1.53-13.51,5.74-15.72,13.79a17.35,17.35,0,0,0-.49,4.71q0,22.65,0,45.3c0,1.07-.26,1.38-1.34,1.35-2.61-.08-5.21-.07-7.82,0-1,0-1.21-.26-1.21-1.22q0-22.65,0-45.3A18.51,18.51,0,0,0,195,40.06c-5.7-1-11-.18-15.28,4a20.55,20.55,0,0,0-6,12.73,37.66,37.66,0,0,0-.2,4.75q0,21.12,0,42.24c0,1.06-.22,1.39-1.32,1.35-2.6-.09-5.21-.05-7.81,0-.75,0-1.07-.15-1.07-1,0-14.81-.07-29.63,0-44.44.06-7.17,2.05-13.79,6.8-19.38,5-5.92,11.49-9,19.12-9.83,6.37-.71,12.31.34,17.68,4A31.38,31.38,0,0,1,215.14,43C215.32,43.29,215.5,43.55,215.74,43.88Z"/><path class="cls-1" d="M153,82c0,7.28,0,14.56,0,21.85,0,1-.23,1.33-1.27,1.3q-3.72-.12-7.44,0c-1.06,0-1.25-.32-1.25-1.3,0-13.83,0-27.67,0-41.51,0-11.81-9.95-21-19.07-22.3-13.55-1.94-23.15,8-25.28,16.72a24.58,24.58,0,0,0-.66,5.8q0,20.63,0,41.26c0,1.12-.32,1.36-1.37,1.33q-3.66-.12-7.32,0c-1,0-1.28-.25-1.28-1.27q.06-18.5,0-37c0-4.72.09-9.41,1.45-14a31.62,31.62,0,0,1,27-22.39c13.2-1.3,23.77,3.26,31.27,14.33a29.87,29.87,0,0,1,5.09,16.55c.12,6.87,0,13.75,0,20.63Z"/><path class="cls-1" d="M364.38,46.29c0-12.86,0-25.72,0-38.58,0-1.13.2-1.56,1.43-1.51,2.48.09,5,.07,7.45,0,.92,0,1.14.24,1.14,1.16,0,7.73,0,15.46-.05,23.19,0,1,.24,1.28,1.26,1.27,4.76-.06,9.52,0,14.28-.06,1.13,0,1.35.34,1.32,1.37q-.12,3.3,0,6.59c0,1-.22,1.31-1.26,1.3-4.81-.06-9.61,0-14.41-.05-1,0-1.19.27-1.19,1.21q0,20.39,0,40.78a20.72,20.72,0,0,0,.62,5c1.41,5.78,5.52,9.39,11.62,10.26a21.9,21.9,0,0,0,3.52.29c.7,0,1.11.16,1.08,1-.08,2.11,0,4.23,0,6.35,0,.51,0,.86-.7.84-6.53-.2-12.92-.94-18.41-4.93-4.81-3.49-6.86-8.49-7.48-14.21a64.2,64.2,0,0,1-.19-7.07Q364.38,63.38,364.38,46.29Z"/><path class="cls-1" d="M482.2,5.56l-20.78,15c-7.67,5.56-15.35,11.1-23,16.69-.78.57-1.08.44-1.5-.34a38.79,38.79,0,0,0-5.13-7.25,2.21,2.21,0,0,1-.59-1.65c.1-3.17.17-6.34.25-9.51,0-.43,0-.86,0-1-1.45,1.31-3.08,2.63-4.52,4.15a2.79,2.79,0,0,1-2.54,1q-10.08-.92-20.21-.93c-.76,0-1-.15-1-1,0-2.74,0-2.75,2.69-2.73,5.77.05,11.54.34,17.29.79a2.47,2.47,0,0,0,2.22-.9c3.15-3.39,6.35-6.75,9.54-10.12l.3-.27c0,2.93,0,5.83,0,8.74-.05,3.53-.15,7.07-.26,10.6a1.89,1.89,0,0,0,.51,1.31c.9,1.15,1.82,2.29,2.63,3.51.44.68.73.68,1.36.23q14.85-10.8,29.73-21.54c4.61-3.34,9.23-6.66,13.81-10,.79-.59,1-.42,1.38.41a58.07,58.07,0,0,1,4.57,20.69c1,20.47-6.49,37.71-20.13,52.57-8.35,9.1-18.24,16.25-28.94,22.32a2.24,2.24,0,0,0-1.29,2.16c-.86,18.47-6,35.49-17.38,50.3A65.72,65.72,0,0,1,405,163.92c-.81.52-1.15.41-1.53-.4s-1.19-1.54-1.11-2.21,1.21-.94,1.87-1.41c11.27-8,19.08-18.71,24.26-31.41a88.37,88.37,0,0,0,6.18-27.83c.09-1.5.22-3,.18-4.51a2,2,0,0,1,1.27-2.05,123.27,123.27,0,0,0,25.17-17.89C470,68.1,477,58.8,481.15,47.61A63,63,0,0,0,482.59,6.7C482.48,6.35,482.36,6,482.2,5.56Z"/><path class="cls-1" d="M279.18,127.45c-1.6,3.71-3.19,7.42-4.8,11.13-.21.47-.24,1.1-1.08,1.09s-.88-.55-1.1-1q-2.15-5-4.31-10.07a2.69,2.69,0,0,0-.7-1.05v7.08c0,1.39,0,2.77,0,4.15,0,.52,0,.92-.72.94s-.79-.42-.79-1c0-4.19,0-8.38,0-12.57,0-.36-.33-1.07.39-1s1.74-.54,2.21.6l4.22,10.1c.2.48.41.95.73,1.7.82-1.89,1.54-3.53,2.25-5.18.94-2.16,1.94-4.29,2.78-6.48.48-1.24,1.4-.72,2.15-.74s.49.78.49,1.19c0,4.15,0,8.3,0,12.45,0,.5.08.95-.7,1s-.86-.3-.86-.94c0-3.74,0-7.48,0-11.22Z"/><path class="cls-1" d="M296.24,150.11c-1.61,3.71-3.2,7.43-4.81,11.14-.23.53-.3,1.16-1.18,1.13s-.85-.66-1.05-1.13c-1.6-3.68-3.16-7.38-5-11.07,0,.44,0,.89,0,1.33,0,3.26,0,6.51,0,9.77,0,.47.25,1.06-.67,1.1s-.87-.41-.87-1c0-4.15,0-8.3,0-12.45,0-.38-.38-1.15.46-1.1s1.68-.53,2.17.69c1.54,3.84,3.17,7.64,4.78,11.48.5-.15.49-.63.63-.95,1.51-3.46,3-6.93,4.49-10.39a2.14,2.14,0,0,1,2.45-.84c.27.15.22.4.22.63,0,4.4,0,8.8,0,13.19,0,.57-.16.77-.76.79s-.76-.34-.76-.89c0-3.78,0-7.57,0-11.35Z"/><path class="cls-1" d="M143.14,127.49v11.1c0,.58.1,1.11-.83,1.08s-.71-.57-.71-1.06c0-4.11,0-8.22,0-12.32,0-.41-.36-1.13.35-1.21s1.5-.36,2.07.52c1.86,2.91,3.78,5.78,5.68,8.66a15.67,15.67,0,0,0,1.9,2.49V133c0-2.36,0-4.72,0-7.07,0-.59.09-.87.78-.87s.78.29.78.87c0,4.23,0,8.46,0,12.69,0,.37.3,1-.42,1.05-.57,0-1.17.2-1.61-.5-1.48-2.33-3-4.62-4.55-6.92q-1.59-2.41-3.19-4.83Z"/><path class="cls-1" d="M83.42,153.14a4,4,0,0,1,4.69-1.68A3.75,3.75,0,0,1,91,154.72a43.83,43.83,0,0,1,.1,5c0,.61,0,1.22,0,1.82s-.19.84-.83.84-.69-.36-.68-.85c0-1.95,0-3.9,0-5.85a2.78,2.78,0,0,0-1.77-2.81,2.72,2.72,0,0,0-3,.79,2.76,2.76,0,0,0-.7,2.13c0,1.83,0,3.66,0,5.49,0,.58.09,1.12-.83,1.1s-.73-.54-.73-1c0-1.88,0-3.75,0-5.62a2.84,2.84,0,0,0-2.82-3c-1.49,0-2.57,1.25-2.58,3.09s0,3.82,0,5.74c0,.57-.07.89-.78.87s-.84-.23-.83-.85c0-2,0-4.07.06-6.1a4.2,4.2,0,0,1,7.48-2.56A1.55,1.55,0,0,0,83.42,153.14Z"/><path class="cls-1" d="M335.32,135.71c0-1,0-2,0-2.92a4,4,0,0,1,2.63-3.88,3.82,3.82,0,0,1,4.64,1c.45.54.63.35,1-.05a3.85,3.85,0,0,1,4.44-1,3.79,3.79,0,0,1,2.78,3.51c.16,2.22.07,4.46.11,6.7,0,.62-.34.6-.78.62s-.84-.08-.83-.72c0-1.79,0-3.57,0-5.36a7.85,7.85,0,0,0-.11-1.46,2.59,2.59,0,0,0-2.58-2.14,2.8,2.8,0,0,0-2.74,2.6c0,2,0,4.07,0,6.1,0,.57,0,1-.8,1s-.76-.5-.76-1q0-2.74,0-5.49A2.93,2.93,0,0,0,339.5,130c-1.45-.05-2.58,1.22-2.63,3.06s0,3.74,0,5.61c0,.56.06,1-.78,1s-.76-.49-.76-1C335.33,137.66,335.32,136.69,335.32,135.71Z"/><path class="cls-1" d="M36.67,135.68c0,1.06,0,2.12,0,3.17,0,.54-.11.81-.73.82s-.85-.21-.84-.84c0-1.87,0-3.74,0-5.61a3.75,3.75,0,0,0-.31-1.66A2.9,2.9,0,0,0,31.88,130a2.5,2.5,0,0,0-2.14,2.46c-.09,2,0,4-.07,6,0,.57.19,1.23-.84,1.22s-.74-.65-.74-1.16c0-1.83-.05-3.66,0-5.49A4.08,4.08,0,0,1,30.64,129,3.89,3.89,0,0,1,35.49,130c.36.45.53.28.81-.05A3.9,3.9,0,0,1,41,128.88a3.94,3.94,0,0,1,2.7,3.83c.1,2.07,0,4.15.07,6.22,0,.63-.26.73-.8.73s-.79-.18-.79-.77c0-2.15,0-4.31-.1-6.46a2.4,2.4,0,0,0-1.71-2.29,2.78,2.78,0,0,0-2.9.75,2.32,2.32,0,0,0-.75,1.86C36.68,133.73,36.67,134.71,36.67,135.68Z"/><path class="cls-1" d="M56.2,136c0-.94,0-1.87,0-2.81a3.24,3.24,0,0,0-6.48,0c0,1.83,0,3.66,0,5.49,0,.55,0,1-.79,1s-.78-.45-.78-1c0-1.79,0-3.58,0-5.37a4.67,4.67,0,0,1,4.6-4.72,4.59,4.59,0,0,1,5,4.32c.14,2,0,4.06.06,6.1,0,.68-.4.65-.88.67s-.71-.21-.69-.72C56.22,138,56.2,137,56.2,136Z"/><path class="cls-1" d="M106.6,158.82c0,.89,0,1.79,0,2.68,0,.58-.11.88-.8.88s-.78-.33-.78-.9c0-1.78,0-3.57,0-5.36a4.72,4.72,0,0,1,4.49-4.84,4.57,4.57,0,0,1,5.08,4.28c.21,2.06.08,4.14.12,6.21,0,.63-.39.57-.81.59s-.77-.1-.76-.66c0-1.74,0-3.49,0-5.24,0-2.24-1.35-3.71-3.31-3.7s-3.25,1.48-3.26,3.74Z"/><path class="cls-1" d="M104.75,132a2,2,0,0,1-2.26-.75,4.15,4.15,0,0,0-6.08,0,4,4,0,0,0-.12,5.79,4.41,4.41,0,0,0,6.15.22c1-.93,1-.93,2.18-.81-.5,2.17-3,3.63-5.7,3.41a5.89,5.89,0,0,1-5.34-5.42A5.75,5.75,0,0,1,98,128.68,5.61,5.61,0,0,1,104.75,132Z"/><path class="cls-1" d="M178.44,132.06a2.11,2.11,0,0,1-2.28-.79,4.1,4.1,0,0,0-6-.05,4,4,0,0,0-.17,5.86,4.27,4.27,0,0,0,6.11.17,2,2,0,0,1,2.21-.77c-.47,2.13-2.92,3.6-5.68,3.41a5.84,5.84,0,0,1-5.34-5.26,5.72,5.72,0,0,1,4.5-6A5.58,5.58,0,0,1,178.44,132.06Z"/><path class="cls-1" d="M321.87,132a2,2,0,0,1-2.21-.75,4.13,4.13,0,0,0-6.08,0,4,4,0,0,0,0,5.88,4.42,4.42,0,0,0,6.16,0c.17-.17.29-.4.47-.56a1.24,1.24,0,0,1,1.47-.14c.49.35-.09.77-.31,1.09a5.84,5.84,0,0,1-6.76,2,5.65,5.65,0,0,1-3.77-6,5.88,5.88,0,0,1,10.85-2.17A.94.94,0,0,1,321.87,132Z"/><path class="cls-1" d="M205.09,154.75a2.15,2.15,0,0,1-2.36-.82,4.08,4.08,0,0,0-6,0,4,4,0,0,0-.08,5.86,4.31,4.31,0,0,0,6.21,0,2,2,0,0,1,2.14-.64,5.39,5.39,0,0,1-6.05,3.36,5.74,5.74,0,0,1-5-5.41,5.82,5.82,0,0,1,11.16-2.4Z"/><path class="cls-1" d="M339,154.74a2,2,0,0,1-2.27-.74,4.13,4.13,0,0,0-6.08,0,4.07,4.07,0,0,0,0,5.88,4.29,4.29,0,0,0,6.12,0,1.86,1.86,0,0,1,2.1-.69c-.46,2.11-2.86,3.58-5.58,3.41a5.73,5.73,0,0,1-5.39-5.18A5.78,5.78,0,0,1,339,154.74Z"/><path class="cls-1" d="M204.39,136c0,.94,0,1.87,0,2.81,0,.53-.07.81-.71.82s-.82-.26-.81-.86c0-1.79,0-3.58,0-5.37a3.44,3.44,0,0,0-2.44-3.29,3.29,3.29,0,0,0-3.68,1.49,3.41,3.41,0,0,0-.47,1.87c0,1.75,0,3.5,0,5.24,0,.55,0,.93-.76.92s-.82-.27-.81-.87c0-2,0-3.91.09-5.86a4.54,4.54,0,0,1,4.77-4.37,4.66,4.66,0,0,1,4.78,4.54c.06,1,0,2,0,2.93Z"/><path class="cls-1" d="M154.15,166.06a2.75,2.75,0,0,1,.18-.57c1.5-2.4,1.24-4.74,0-7.18a47.15,47.15,0,0,1-2.2-5.53c-.13-.36-.82-.88-.11-1.18a1.11,1.11,0,0,1,1.6.77c.75,2.06,1.61,4.07,2.43,6.1.18.45.37.88.62,1.48,1.07-2.5,2.06-4.85,3.06-7.2.12-.29.24-.6.39-.88.32-.6.9-.39,1.3-.28.61.17.13.6,0,.87-1.79,4.3-3.63,8.59-5.37,12.9C155.63,166.38,155,166.06,154.15,166.06Z"/><path class="cls-1" d="M205.86,158.49c0-.89,0-1.78,0-2.68a4.78,4.78,0,0,1,9.52-.28c.1,2,0,4.07.05,6.1,0,.61-.24.73-.79.74s-.74-.26-.73-.8c0-1.79,0-3.57,0-5.36a3.29,3.29,0,1,0-6.58-.06c0,1.78,0,3.57,0,5.36,0,.59-.09.88-.79.87s-.7-.34-.69-.84C205.87,160.53,205.86,159.51,205.86,158.49Z"/><path class="cls-1" d="M121.09,135.81c0-.93,0-1.87,0-2.8a4.79,4.79,0,0,1,9.49-.44c.19,2.14.06,4.3.1,6.46,0,.6-.33.61-.78.63s-.75-.1-.74-.67c0-1.74,0-3.49,0-5.24,0-2.21-1.37-3.71-3.33-3.71s-3.26,1.52-3.26,3.75c0,1.59,0,3.18,0,4.76,0,.54.2,1.14-.77,1.12s-.7-.68-.72-1.17c0-.9,0-1.79,0-2.69Z"/><path class="cls-1" d="M374.39,135.85c0,1,0,2,0,2.93,0,.56-.06.89-.77.89s-.75-.37-.75-.91c0-1.71,0-3.42,0-5.13a3.31,3.31,0,1,0-6.59,0c0,1.71,0,3.42,0,5.12,0,.57-.05.89-.77.89s-.75-.38-.74-.92c0-1.87,0-3.74,0-5.61a4.78,4.78,0,0,1,9.56.15C374.41,134.14,374.39,135,374.39,135.85Z"/><path class="cls-1" d="M400.51,136.63a3.43,3.43,0,0,1-3,3.29,3.48,3.48,0,0,1-3.77-2.59c-.07-.32-.31-.83.23-.9s1-.36,1.26.49a1.88,1.88,0,0,0,1.71,1.52,1.71,1.71,0,0,0,1.89-1.21,1.61,1.61,0,0,0-.74-2.1,15.49,15.49,0,0,0-2.16-.81,2.79,2.79,0,0,1-1.86-3.19,3.1,3.1,0,0,1,6-.6c.1.31.44.79-.11.91s-1.1.4-1.34-.35c-.29-1-1-1.11-1.82-1a1.31,1.31,0,0,0-1.14,1.25c-.12,1,.48,1.4,1.25,1.7.54.2,1.09.35,1.62.56A3.06,3.06,0,0,1,400.51,136.63Z"/><path class="cls-1" d="M140.77,159.32a3.43,3.43,0,0,1-6.75.74c-.07-.33-.45-.88.27-.93.43,0,1.05-.33,1.24.53a1.78,1.78,0,0,0,1.83,1.49,1.68,1.68,0,0,0,1.79-1.36,1.66,1.66,0,0,0-.94-2c-.66-.3-1.38-.47-2.05-.74a2.85,2.85,0,0,1-1.85-3.21,3.13,3.13,0,0,1,5.92-.75c.16.38.47.91-.12,1.1-.42.14-1,.3-1.29-.47a1.43,1.43,0,0,0-1.79-.88,1.41,1.41,0,0,0-1.19,1.37A1.53,1.53,0,0,0,137,155.7c.56.23,1.16.38,1.72.61A3,3,0,0,1,140.77,159.32Z"/><path class="cls-1" d="M65.7,139.93a3.37,3.37,0,0,1-3.29-2.41c-.12-.38-.44-.92.21-1.08.45-.1,1-.26,1.24.54a1.82,1.82,0,0,0,2,1.45,1.79,1.79,0,0,0,.77-3.34c-.69-.34-1.45-.51-2.16-.8a2.81,2.81,0,0,1-1.79-3.23,3.12,3.12,0,0,1,2.88-2.54,3.07,3.07,0,0,1,3.06,2c.1.3.54.85-.14,1-.42.08-1,.35-1.32-.41a1.52,1.52,0,0,0-2.39-.68,1.42,1.42,0,0,0,.22,2.42,13.17,13.17,0,0,0,1.92.75,3.18,3.18,0,0,1,2.18,3.74A3.54,3.54,0,0,1,65.7,139.93Z"/><path class="cls-1" d="M175.68,155.68c0-1.83,0-3.66,0-5.49,0-.77-.18-1.12-1-1-.52.06-1.06,0-1.58,0s-.72-.26-.74-.79.26-.66.74-.65c2.23,0,4.47,0,6.7,0,.52,0,.72.16.7.69s-.07.82-.66.75h-.12c-.8.08-1.84-.37-2.33.2s-.14,1.63-.15,2.47c0,3,0,5.93,0,8.9,0,.55.63,1.6-.72,1.62s-.75-1.11-.78-1.69C175.62,159,175.68,157.34,175.68,155.68Z"/><path class="cls-1" d="M70.44,131.14c0-1.75,0-3.49,0-5.24,0-.57.06-.9.77-.89s.88.22.81.85a7.85,7.85,0,0,0,0,1c0,1.76,0,1.8,1.79,1.89.66,0,.68.33.7.83s-.31.6-.75.62C72,130.25,72,130.26,72,132c0,1.42,0,2.84,0,4.27s.44,2,1.84,2.27c.64.12.66.43.63.91,0,.69-.56.44-.91.4-2.08-.26-3-1.24-3.11-3.34-.06-1.79,0-3.58,0-5.36Z"/><path class="cls-1" d="M375.86,131.23c0-1.79,0-3.57,0-5.36,0-.6.12-.86.79-.86s.84.28.78.87c0,.32,0,.65,0,1,0,1.74,0,1.78,1.71,1.86.61,0,.73.28.74.81s-.3.62-.76.64c-1.69.08-1.69.1-1.69,1.76v4.38c0,1.2.48,2.06,1.77,2.22.61.07.73.39.66.9s-.54.45-.92.4c-2.13-.28-3.06-1.32-3.07-3.49C375.85,134.64,375.86,132.93,375.86,131.23Z"/><path class="cls-1" d="M116.2,154c0-1.82,0-3.65,0-5.48,0-.49,0-.84.68-.84s.87.24.8.86a8,8,0,0,0,0,.85c0,1.87,0,1.91,1.8,2,.66,0,.67.34.7.84s-.33.59-.77.61c-1.73.07-1.73.08-1.73,1.83,0,1.42,0,2.84,0,4.26a2,2,0,0,0,1.85,2.29c.66.08.66.45.62.92s-.48.41-.82.38c-2.14-.22-3.11-1.28-3.12-3.4C116.19,157.45,116.2,155.75,116.2,154Z"/><path class="cls-1" d="M229.41,155.07q0-3.23,0-6.47c0-.54,0-.91.75-.92s.84.34.84,1q0,6.41,0,12.81c0,.53,0,.92-.74.94s-.85-.36-.84-1C229.42,159.3,229.41,157.19,229.41,155.07Z"/><path class="cls-1" d="M218.41,132.36c0-2.15,0-4.31,0-6.46,0-.53,0-.94.74-.93s.78.33.78.9q0,6.47,0,12.93c0,.59-.13.88-.81.87s-.71-.34-.71-.84C218.42,136.67,218.41,134.52,218.41,132.36Z"/><path class="cls-1" d="M77,129.94a4.08,4.08,0,0,1,2.13-1.27c.33,0,.81-.27.81.35,0,.4.26,1-.39,1.12-2,.45-2.52,1.89-2.46,3.75,0,1.58,0,3.17,0,4.75,0,.53.11,1-.75,1s-.83-.4-.83-1c0-3,0-5.93,0-8.9,0-.47-.12-1,.67-1S77,129.3,77,129.94Z"/><path class="cls-1" d="M71,155q0,3.24,0,6.46c0,.54,0,.92-.75.92s-.73-.42-.73-.93q0-6.47,0-12.92c0-.49,0-.85.68-.85s.81.25.81.87C71,150.7,71,152.85,71,155Z"/><path class="cls-1" d="M60.71,134.2c0,1.54,0,3.08,0,4.62,0,.6-.16.86-.82.86s-.7-.36-.7-.86q0-4.62,0-9.23c0-.57.16-.81.76-.81s.77.23.76.8C60.69,131.12,60.71,132.66,60.71,134.2Z"/><path class="cls-1" d="M307.73,134.24c0-1.54,0-3.08,0-4.61,0-.56.14-.82.75-.81s.81.14.8.75q0,4.67,0,9.35c0,.62-.28.73-.82.74s-.75-.25-.74-.8C307.75,137.32,307.73,135.78,307.73,134.24Z"/><path class="cls-1" d="M326.29,156.9c0,1.55,0,3.09,0,4.64,0,.49,0,.84-.69.84s-.79-.3-.79-.89q0-4.56,0-9.14c0-.52.08-.83.71-.85s.79.32.78.89C326.27,153.89,326.29,155.4,326.29,156.9Z"/><path class="cls-1" d="M107,134.24c0,1.54,0,3.09,0,4.63,0,.56-.13.8-.75.8s-.74-.26-.74-.81q0-4.63,0-9.27c0-.57.17-.78.76-.8s.74.28.73.82C107,131.15,107,132.7,107,134.24Z"/><path class="cls-1" d="M72.56,156.9c0-1.5,0-3,0-4.51,0-.59.12-.89.8-.89s.69.35.69.85q0,4.58,0,9.15c0,.57-.07.89-.78.88s-.7-.47-.7-1C72.57,159.91,72.56,158.41,72.56,156.9Z"/><path class="cls-1" d="M259.79,156.72c0,1.55,0,3.1,0,4.64,0,.63-.17.85-.82.85s-.67-.39-.66-.86q0-4.57,0-9.15c0-.48,0-.86.68-.85s.82.24.81.86C259.76,153.71,259.79,155.22,259.79,156.72Z"/><path class="cls-1" d="M180.7,134.29c0,1.51,0,3,0,4.52,0,.59-.1.87-.79.86s-.69-.36-.68-.85q0-4.57,0-9.15c0-.6.12-.87.8-.86s.69.35.68.85C180.7,131.2,180.7,132.75,180.7,134.29Z"/><path class="cls-1" d="M46.64,134.23c0,1.54,0,3.09,0,4.63,0,.55-.1.81-.73.81s-.76-.21-.75-.78q0-4.63,0-9.28c0-.54.1-.8.73-.8s.77.2.75.78C46.62,131.14,46.64,132.68,46.64,134.23Z"/><path class="cls-1" d="M403,141c-.61,0-1,0-.64-.79a23.83,23.83,0,0,0,1.09-2.55,1,1,0,0,1,1.39-.54c.71.26,0,.72-.06,1-.25.76-.61,1.49-.91,2.24C403.66,140.85,403.43,141.13,403,141Z"/><path class="cls-1" d="M309.33,126.29c-.09.63.25,1.36-.8,1.36-1.24,0-.76-.88-.8-1.45s-.32-1.23.75-1.24C309.76,124.94,309.12,125.87,309.33,126.29Z"/><path class="cls-1" d="M309.52,147.59c-1.35.94-1.68,2.65-3.47,2.59C306.71,148,307.36,147.49,309.52,147.59Z"/><path class="cls-1" d="M261.84,147.76c-1.23.85-1.53,2.56-3.35,2.43C259.3,147.91,259.82,147.49,261.84,147.76Z"/><path class="cls-1" d="M114.2,127.35c1-2.45,1.32-2.66,3.12-2.42C116.28,126.77,115.37,127.48,114.2,127.35Z"/><path class="cls-1" d="M180.75,126.27c-.22.5.4,1.33-.73,1.36s-.76-.83-.75-1.35-.48-1.27.66-1.31S180.52,125.83,180.75,126.27Z"/><path class="cls-1" d="M45.15,126.18c.12-.5-.3-1.21.73-1.21,1.32,0,.66,1,.73,1.48s.35,1.18-.67,1.18C44.63,127.62,45.41,126.65,45.15,126.18Z"/><path class="cls-1" d="M74.06,149c-.18.47.4,1.3-.72,1.31s-.76-.82-.76-1.36-.4-1.27.69-1.3S73.88,148.53,74.06,149Z"/><path class="cls-1" d="M326.32,149c-.17.52.4,1.4-.8,1.37s-.69-.81-.68-1.31-.42-1.37.76-1.35S326.13,148.52,326.32,149Z"/><path class="cls-1" d="M107.05,126.28c-.22.49.39,1.32-.72,1.35s-.78-.79-.79-1.34-.36-1.37.8-1.32S106.79,125.86,107.05,126.28Z"/><path class="cls-1" d="M60.68,126.3c-.07.61.25,1.37-.79,1.29s-.56-1-.64-1.46S59,125,60,125C61.17,125,60.45,125.91,60.68,126.3Z"/><path class="cls-1" d="M256.19,156.6a5.56,5.56,0,1,0-4.88,5.88,7.26,7.26,0,0,0,3.37-1.57,3.61,3.61,0,0,1-1.06,3.21,4,4,0,0,1-6.33-1,1,1,0,0,0-1.41-.5c-.58.29,0,.78.14,1.12.77,1.57,2.26,2.21,3.79,2.77H252c.12-.29.41-.21.62-.29a4.75,4.75,0,0,0,3.57-5C256.2,159.69,256.24,158.14,256.19,156.6ZM250.72,161a4.21,4.21,0,1,1-.08-8.41,4.22,4.22,0,0,1,4.06,4.18A4.15,4.15,0,0,1,250.72,161Z"/><path class="cls-1" d="M13.85,138.44c-1.74-4.19-3.54-8.36-5.29-12.55A1.17,1.17,0,0,0,7.33,125a1.18,1.18,0,0,0-1.25.85c-1,2.39-2.07,4.77-3.16,7.12A64.22,64.22,0,0,1,0,139.2v.49c1.62.34,2.3-.56,2.7-2,.21-.78.64-1.49.9-2.25a1,1,0,0,1,1.08-.73c1.71,0,3.42,0,5.12,0a1,1,0,0,1,1.17.77c.43,1.14,1,2.23,1.38,3.38a1.07,1.07,0,0,0,1.54.7C14.68,139.32,14,138.76,13.85,138.44Zm-9.21-5.19,2.72-6.41L10,133.25Z"/><path class="cls-1" d="M78.14,65.82A30.74,30.74,0,0,0,77.52,60c-1.36-7.17-4.94-13.13-9.91-18.39C57.5,30.94,40.92,27.06,27.21,32.43A38.78,38.78,0,0,0,4.06,78.25c3.3,13.65,17,29.31,37.8,28.54a35.32,35.32,0,0,0,20.86-7.44,53.24,53.24,0,0,0,5.86-5.51v1.45c0,2.85.06,5.7,0,8.55,0,1.13.34,1.34,1.36,1.31q3.42-.12,6.84,0c1,0,1.43-.18,1.42-1.35C78.12,91.13,78.14,78.48,78.14,65.82Zm-20,24.76c-10.27,9.4-26.28,8.25-35.68-.53a28.84,28.84,0,0,1-9.6-22.15c-.2-14.67,11-25.11,21.59-27.54A27.63,27.63,0,0,1,67.63,61.72C69.88,73.09,66.68,82.72,58.11,90.58Z"/><path class="cls-1" d="M354.14,68.48a46.27,46.27,0,0,0-.43-7.53C352.5,53.57,349,47.4,344,42A37.65,37.65,0,0,0,304,32.14a38.74,38.74,0,0,0-24.28,44.71c2.81,13.75,15.52,28.05,32.56,29.71,10.24,1,19.42-1.36,27.4-8a65.1,65.1,0,0,0,4.91-4.74c0,3.6,0,6.9,0,10.19,0,.84.21,1.13,1.09,1.11,2.35,0,4.72-.08,7.07,0,1.1,0,1.42-.25,1.41-1.39Q354.09,86.12,354.14,68.48Zm-22.9,24.29c-9.8,7-24.38,5.47-33.22-3.11a29,29,0,0,1-9.18-22c-.21-14.51,11.1-24.94,21.57-27.3a27.53,27.53,0,0,1,33.43,22.5C345.88,75.4,341.49,85.45,331.24,92.77Z"/><path class="cls-1" d="M68.24,161.5q-2.73-6.44-5.46-12.87c-.23-.56-.45-.91-1.19-.92a1.21,1.21,0,0,0-1.3.95c-.33.83-.72,1.63-1.09,2.44-1.64,3.7-3.29,7.4-5,11.14,1.48.43,2.18-.09,2.52-1.39.24-.9.75-1.71,1.06-2.59a1,1,0,0,1,1.14-.8c1.71,0,3.41,0,5.12,0a1,1,0,0,1,1.14.81c.36,1,.88,1.92,1.19,2.92s1,1.41,2.08,1A7.48,7.48,0,0,0,68.24,161.5ZM58.86,156l2.74-6.43c.95,2.27,1.79,4.31,2.68,6.43Z"/><path class="cls-1" d="M285,134.74c2.48.07,5,0,7.43,0,1.34,0,1.46-.12,1.23-1.47a5.52,5.52,0,0,0-3.94-4.53,5.23,5.23,0,0,0-5.76,1.58,5.72,5.72,0,0,0,4.48,9.57,5.38,5.38,0,0,0,4.9-3.81,1.74,1.74,0,0,0-2.08.81,4.11,4.11,0,0,1-7-1C284,135.11,284,134.71,285,134.74Zm-.81-2a4.21,4.21,0,0,1,7.78-.11c.23.65,0,.76-.61.75-1.09,0-2.19,0-3.29,0s-2.27,0-3.41,0C284.17,133.36,284.08,133.2,284.22,132.71Z"/><path class="cls-1" d="M184,157.46c2.6,0,5.21,0,7.81,0,.62,0,.83-.16.85-.81a5.61,5.61,0,0,0-10.95-1.6,5.84,5.84,0,0,0,3.52,7.25c2.87,1,5.86-.42,7.14-3.52a1.75,1.75,0,0,0-2.17.86,3.47,3.47,0,0,1-3.66,1.41,4.11,4.11,0,0,1-3.3-2.58C182.92,157.68,183.16,157.44,184,157.46Zm-.71-2.3a4.12,4.12,0,0,1,4.12-2.4,4.05,4.05,0,0,1,3.7,3.29c-2.47,0-4.86,0-7.24,0C183.1,156.07,183,155.84,183.32,155.16Z"/><path class="cls-1" d="M355,134.74c2.52.06,5,0,7.56,0,.84,0,1.16-.18,1.08-1.06a5.62,5.62,0,0,0-2-3.89,5.52,5.52,0,0,0-6.57-.48,5.75,5.75,0,0,0,2.91,10.58,5.41,5.41,0,0,0,5.31-3.82,1.64,1.64,0,0,0-2.09.81,3.46,3.46,0,0,1-3.64,1.45,4.07,4.07,0,0,1-3.33-2.53C353.82,135,354,134.72,355,134.74Zm-.82-2.15a4.13,4.13,0,0,1,3.93-2.54,4.07,4.07,0,0,1,3.84,2.68c.16.54,0,.62-.48.61-1.14,0-2.28,0-3.41,0s-2.2,0-3.29,0C354.14,133.36,353.94,133.22,354.16,132.59Z"/><path class="cls-1" d="M302.07,157.45c2.19.07,4.39,0,6.58,0s2.61-.55,1.74-2.7a5.66,5.66,0,0,0-1.12-1.73,5.59,5.59,0,0,0-6.56-1.28,5.82,5.82,0,0,0-3,6.56,5.89,5.89,0,0,0,5.18,4.31,5.47,5.47,0,0,0,5.55-3.8,1.58,1.58,0,0,0-2,.69,3.53,3.53,0,0,1-3.71,1.57,4.06,4.06,0,0,1-3.33-2.53C301,157.8,301,157.42,302.07,157.45Zm-1-1.4c.62-2.07,1.85-3.14,3.62-3.28a4.1,4.1,0,0,1,4.19,2.31c.3.63.41,1-.56,1C306,156,303.58,156.05,301.11,156.05Z"/><path class="cls-1" d="M322.54,147.76c-.66,0-.7.33-.69.84,0,1.42,0,2.83,0,4.46-2-1.81-4.15-2.32-6.44-1.21a5.64,5.64,0,1,0,7.9,5.31c0-2.84,0-5.68,0-8.53C323.33,148.05,323.24,147.75,322.54,147.76Zm-4.76,13.42a4.19,4.19,0,0,1-4.09-4.27,4.08,4.08,0,0,1,4.11-4.08,4,4,0,0,1,4,4.17A4.14,4.14,0,0,1,317.78,161.18Z"/><path class="cls-1" d="M246.29,134.75c2.56.05,5.13,0,7.69,0,.79,0,1.05-.21,1-1a5.74,5.74,0,0,0-3.76-4.95,5.5,5.5,0,0,0-6.24,1.83,5.72,5.72,0,0,0,4.92,9.26,5.33,5.33,0,0,0,4.72-3.8,1.61,1.61,0,0,0-2,.74,3.47,3.47,0,0,1-3.6,1.55,4,4,0,0,1-3.43-2.58C245.27,135.06,245.34,134.73,246.29,134.75Zm-.66-2.32a4.14,4.14,0,0,1,4.14-2.39,4,4,0,0,1,3.66,3.3c-2.49,0-4.88,0-7.27,0C245.29,133.37,245.35,133.05,245.63,132.43Z"/><path class="cls-1" d="M95.07,157.46c2.31,0,4.63,0,7,0,2.07,0,2.27-.27,1.64-2.29a5.27,5.27,0,0,0-.49-1.11,5.64,5.64,0,0,0-7-2.48,5.81,5.81,0,0,0-3.39,6.81,5.89,5.89,0,0,0,5.36,4.24,5.36,5.36,0,0,0,5.31-3.81,1.57,1.57,0,0,0-2,.76,3.52,3.52,0,0,1-3.74,1.48,4.07,4.07,0,0,1-3.33-2.7C94.12,157.63,94.33,157.45,95.07,157.46Zm-.64-2.12a4.07,4.07,0,0,1,3.88-2.58,4.13,4.13,0,0,1,3.88,2.61c.21.59,0,.7-.51.68-1.14,0-2.27,0-3.4,0s-2.19,0-3.28,0C94.46,156.06,94.15,156.05,94.43,155.34Z"/><path class="cls-1" d="M26.63,125.91c0-.6-.13-.86-.8-.86s-.69.36-.68.85c0,1.42,0,2.83,0,4.42-2.41-1.92-4.82-2.22-6.89-1a5.78,5.78,0,0,0-2.64,6.19,5.56,5.56,0,0,0,11-.75C26.66,131.84,26.6,128.87,26.63,125.91Zm-5.56,12.56A4.19,4.19,0,0,1,17,134.19a4.06,4.06,0,1,1,8.12.1A4.14,4.14,0,0,1,21.07,138.47Z"/><path class="cls-1" d="M306.27,125.91c0-.48,0-.85-.69-.86s-.8.3-.79.89c0,1.37,0,2.75,0,4.35-2.2-1.81-4.41-2.3-6.72-1a5.56,5.56,0,0,0-2.86,5.86,5.55,5.55,0,0,0,11-.22C306.31,131.93,306.26,128.92,306.27,125.91Zm-5.51,12.56a4.19,4.19,0,0,1-4.1-4.26,4.07,4.07,0,0,1,4.1-4.09,4,4,0,0,1,4,4.15A4.09,4.09,0,0,1,300.76,138.47Z"/><path class="cls-1" d="M242.28,126c0-.49.09-1-.7-1s-.77.49-.76,1v4.21c-.51-.38-.79-.6-1.1-.8a5.45,5.45,0,0,0-6.65.5,5.84,5.84,0,0,0-1.32,6.91,5.55,5.55,0,0,0,10.52-2.35C242.31,131.71,242.28,128.86,242.28,126Zm-5.53,12.46a4.11,4.11,0,0,1-4.07-4.27,4,4,0,0,1,4.08-4.08,4.08,4.08,0,0,1,4,4.16A4.14,4.14,0,0,1,236.75,138.47Z"/><path class="cls-1" d="M216.93,133.63a5.55,5.55,0,0,0-9.27-3.63,5.59,5.59,0,0,0-1.63,5.77c.77,3.26,5.26,6,9.38,2.48a2.74,2.74,0,0,1,.08.59c-.05.64.22.84.86.82s.63-.47.63-.91C217,137,217,135.33,216.93,133.63Zm-5.47,4.79a4.23,4.23,0,0,1,.06-8.45,4.24,4.24,0,0,1-.06,8.45Z"/><path class="cls-1" d="M350.91,161.31c0-1.5,0-3,0-4.5a5.33,5.33,0,0,0-3.45-5.13,5.12,5.12,0,0,0-5.95,1.12,5.54,5.54,0,0,0-1.41,6.14c1,3,5.31,5.39,9.29,2a2.74,2.74,0,0,1,.05.48c0,.55-.07,1,.78,1S350.9,161.79,350.91,161.31Zm-5.58-.18a4.23,4.23,0,1,1,4.07-4.2A4.25,4.25,0,0,1,345.33,161.13Z"/><path class="cls-1" d="M271.79,161.38c0-1.54,0-3.08,0-4.63a5.54,5.54,0,0,0-10.27-2.87,5.81,5.81,0,0,0,.45,6.7c2.19,2.53,5.07,2.69,8.33.38a2.83,2.83,0,0,1,0,.47c-.06.61.05,1,.82.95S271.78,161.83,271.79,161.38Zm-5.48-.25a4.23,4.23,0,0,1,0-8.45,4.23,4.23,0,0,1,0,8.45Z"/><path class="cls-1" d="M165.84,138.58c0-1.58,0-3.17,0-4.75a5.55,5.55,0,0,0-10.78-1.59,5.77,5.77,0,0,0,2,6.63c2.15,1.55,4.76,1.35,7.26-.66a3.34,3.34,0,0,1,.08.45c0,.55-.06,1,.78,1S165.84,139.05,165.84,138.58Zm-5.48-.16a4.14,4.14,0,0,1-4.11-4.24,4,4,0,1,1,4.11,4.24Z"/><path class="cls-1" d="M92.09,138.6c0-1.42,0-2.85,0-4.27a5.54,5.54,0,0,0-9-4.56,5.54,5.54,0,0,0-1.88,6c.87,3.43,5.43,5.84,9.36,2.45a1.84,1.84,0,0,1,.11.44c0,.58,0,1,.82,1S92.08,139,92.09,138.6Zm-5.41-.18a4.17,4.17,0,0,1-4.14-4.22,4.21,4.21,0,0,1,4-4.23,4.23,4.23,0,0,1,.12,8.45Z"/><path class="cls-1" d="M333.85,138.65c0-1.51,0-3,0-4.51a5.53,5.53,0,0,0-5.16-5.61,5.69,5.69,0,0,0-2.4,11,5.45,5.45,0,0,0,6-1.35,5.06,5.06,0,0,1,.06.56c-.07.62.06,1,.83.95S333.85,139.08,333.85,138.65Zm-5.5-.23a4.23,4.23,0,1,1,4-4.24A4.2,4.2,0,0,1,328.35,138.42Z"/><path class="cls-1" d="M187.77,128.5a5.78,5.78,0,0,0-5.55,5.8,5.59,5.59,0,1,0,11.18-.1A5.69,5.69,0,0,0,187.77,128.5Zm.18,9.92a4.17,4.17,0,0,1-4.18-4.17,4.07,4.07,0,1,1,8.13-.12A4.22,4.22,0,0,1,188,138.42Z"/><path class="cls-1" d="M238,151.21a5.73,5.73,0,0,0-5.51,5.69,5.52,5.52,0,0,0,5.55,5.7,5.64,5.64,0,0,0,5.6-5.69A5.72,5.72,0,0,0,238,151.21Zm.11,9.92a4.1,4.1,0,0,1-4.07-4.25,4,4,0,0,1,4.05-4.12,4.16,4.16,0,0,1,4.07,4.16A4.28,4.28,0,0,1,238.14,161.13Z"/><path class="cls-1" d="M222.48,151.21a5.74,5.74,0,0,0-5.59,5.74A5.58,5.58,0,1,0,228,157,5.7,5.7,0,0,0,222.48,151.21Zm.1,9.92a4.14,4.14,0,0,1-4.14-4.2,4.05,4.05,0,0,1,4-4.17,4.14,4.14,0,0,1,4.12,4.1A4.29,4.29,0,0,1,222.58,161.13Z"/><path class="cls-1" d="M126.8,151.21a5.68,5.68,0,0,0-5.43,5.75,5.5,5.5,0,0,0,5.47,5.64,5.57,5.57,0,0,0,5.63-5.63A5.66,5.66,0,0,0,126.8,151.21Zm.07,9.92a4.17,4.17,0,0,1-4-4.22,4.06,4.06,0,1,1,8.12,0A4.2,4.2,0,0,1,126.87,161.13Z"/><path class="cls-1" d="M386.57,128.5a5.69,5.69,0,0,0-5.49,5.71,5.51,5.51,0,0,0,5.69,5.68,5.7,5.7,0,0,0-.2-11.39Zm.08,9.92a4.12,4.12,0,0,1-4-4.17,4,4,0,0,1,4.1-4.2,4.09,4.09,0,0,1,4,4.19A4.2,4.2,0,0,1,386.65,138.42Z"/><path class="cls-1" d="M114.11,128.5a5.71,5.71,0,0,0-5.55,5.77,5.53,5.53,0,0,0,5.51,5.62,5.63,5.63,0,0,0,5.63-5.65A5.69,5.69,0,0,0,114.11,128.5Zm.12,9.92a4.12,4.12,0,0,1-4.13-4.2,4,4,0,1,1,8.09-.06A4.18,4.18,0,0,1,114.23,138.42Z"/></g></g></svg>