<svg xmlns="http://www.w3.org/2000/svg" viewBox="0 0 64.12 23.59"><defs><style>.cls-1{fill:#5d5d5d;}</style></defs><title>Recurso 1</title><g id="Capa_2" data-name="Capa 2"><g id="Capa_1-2" data-name="Capa 1"><path class="cls-1" d="M35.91,0h8.42a6.76,6.76,0,0,1,2.6.46,4,4,0,0,1,.51.24,2.56,2.56,0,0,1,1.39,1.94,4.42,4.42,0,0,1-.06,1.62A2.77,2.77,0,0,1,47.49,6a4.79,4.79,0,0,1-1.09.47l-.2.06c0,.08.11.07.17.08a3.59,3.59,0,0,1,2.25,1.48,2.72,2.72,0,0,1,.51,1.63,4.72,4.72,0,0,1-.28,1.62,2.37,2.37,0,0,1-1.29,1.36,7.47,7.47,0,0,1-2,.55,16.58,16.58,0,0,1-2.23.12H35.79a7.62,7.62,0,0,0,3.86-6.66A7.7,7.7,0,0,0,35.91,0M40.7,7.89a25.14,25.14,0,0,0,0,2.75h1.42a3,3,0,0,0,1.1-.22,1.17,1.17,0,0,0,.77-1A1.15,1.15,0,0,0,43.13,8a3.09,3.09,0,0,0-1-.15H40.7m0-2.76h.09c.44,0,.89,0,1.33,0a2.82,2.82,0,0,0,1.17-.27,1,1,0,0,0,.44-.42,1.24,1.24,0,0,0-.6-1.74,2.5,2.5,0,0,0-.94-.19c-.45,0-.91,0-1.37,0l-.12,0a24.86,24.86,0,0,0,0,2.59"/><path class="cls-1" d="M23.38,8.58H19.93c0,.41,0,.81,0,1.21v3.6H14.8V.05C15,0,19.64,0,19.9,0a1.5,1.5,0,0,1,0,.22V4.62h3.45c0-.08,0-.15,0-.23V.05C23.55,0,27.76,0,28,0a7.61,7.61,0,0,0-3.76,6.7,7.61,7.61,0,0,0,3.85,6.66H23.38Z"/><path class="cls-1" d="M25.66,4.42h4c0-.45,0-.89,0-1.33V.4a6.74,6.74,0,0,1,4.54,0V3.08c0,.44,0,.88,0,1.34h4a6.68,6.68,0,0,1,0,4.54h-4c0,.24,0,.46,0,.67V13l-.71.21A6.75,6.75,0,0,1,29.88,13a.69.69,0,0,1-.13,0,.16.16,0,0,1-.08-.1.86.86,0,0,1,0-.16V9h-4a6.71,6.71,0,0,1,0-4.55"/><path class="cls-1" d="M32.62,16.57h2a2.31,2.31,0,0,1,1,.23,1,1,0,0,1,.61.79,2.08,2.08,0,0,1,0,.66,1.09,1.09,0,0,1-.69.81,1.13,1.13,0,0,0-.25.12l.2,0a1.19,1.19,0,0,1,.89.84,1.59,1.59,0,0,1-.12,1.17,1,1,0,0,1-.43.42,2.44,2.44,0,0,1-1.21.33h-2Zm1.07,4.57a5.24,5.24,0,0,0,.69,0A2.89,2.89,0,0,0,35,21a.51.51,0,0,0,.28-.24.77.77,0,0,0-.39-1.1,2.55,2.55,0,0,0-1.13-.09l0,0Zm0-2.38h.47a1.81,1.81,0,0,0,.69-.14.48.48,0,0,0,.31-.41,1.71,1.71,0,0,0,0-.32.45.45,0,0,0-.32-.38,1.89,1.89,0,0,0-.41-.1,4.56,4.56,0,0,0-.74,0Z"/><path class="cls-1" d="M3.28,18.72V16.59a2.25,2.25,0,0,1,.51,0h.53a2.28,2.28,0,0,1,0,.26V22h-1c0-.4,0-.79,0-1.19s0-.77,0-1.19c-.75,0-1.47,0-2.22,0,0,.42,0,.81,0,1.2V22H0v0H0s0-.06,0-.08V16.72s0-.07,0-.1a.17.17,0,0,1,0-.05h1v2.14a13.68,13.68,0,0,0,2.22,0"/><path class="cls-1" d="M14.81,21.55c0,.7,0,1.36,0,2h-1c0-.15-.05-5.27,0-5.57a3,3,0,0,1,1,0v.51c.06-.05.09-.06.1-.09a1.5,1.5,0,0,1,1.43-.53,1.38,1.38,0,0,1,1.23,1,3,3,0,0,1,0,2.2,1.43,1.43,0,0,1-1.46,1,1.37,1.37,0,0,1-1.11-.44l-.1-.08M16.61,20a1.8,1.8,0,0,0-.19-.88.65.65,0,0,0-.43-.36.8.8,0,0,0-1,.37,1.78,1.78,0,0,0,0,1.81.81.81,0,0,0,1.4,0,1.83,1.83,0,0,0,.19-.89"/><path class="cls-1" d="M7.32,22.1A6.18,6.18,0,0,1,6.57,22a1.88,1.88,0,0,1-1.3-1.53,2.34,2.34,0,0,1,.09-1.23,1.87,1.87,0,0,1,1.49-1.27,2.28,2.28,0,0,1,1.07,0A1.93,1.93,0,0,1,9.4,19.74a2.77,2.77,0,0,1-.05.86A1.94,1.94,0,0,1,7.5,22.07H7.32v0m1-2.17a1.3,1.3,0,0,0-.24-.87.83.83,0,0,0-.46-.34,1,1,0,0,0-1.23.62,1.8,1.8,0,0,0,.14,1.55.64.64,0,0,0,.45.35,1.67,1.67,0,0,0,.39,0,.79.79,0,0,0,.78-.51,1.71,1.71,0,0,0,.17-.84"/><path class="cls-1" d="M62,22.1c-.21,0-.44-.05-.65-.11A1.85,1.85,0,0,1,60,20.44a2.33,2.33,0,0,1,.09-1.23,1.88,1.88,0,0,1,1.52-1.28,2.44,2.44,0,0,1,1.14.06,1.93,1.93,0,0,1,1.38,1.79A2.24,2.24,0,0,1,63.89,21a1.92,1.92,0,0,1-1.64,1H62v0m1-2.2a1.44,1.44,0,0,0-.13-.66.91.91,0,0,0-.58-.52.94.94,0,0,0-1.21.58,1.82,1.82,0,0,0,.14,1.62.72.72,0,0,0,.58.36h.28a.78.78,0,0,0,.72-.46,1.88,1.88,0,0,0,.2-.92"/><path class="cls-1" d="M50.92,22h-1V18h1v.51a1,1,0,0,0,.14-.12A1.64,1.64,0,0,1,52.69,18a1.18,1.18,0,0,1,.82,1,2,2,0,0,1,0,.42c0,.82,0,1.64,0,2.46a.89.89,0,0,1,0,.15h-1c0-.07,0-.15,0-.23v-2a2.74,2.74,0,0,0-.08-.7.51.51,0,0,0-.43-.38.8.8,0,0,0-.93.49,2.13,2.13,0,0,0-.17.86V22Z"/><path class="cls-1" d="M49,22h-.88c0-.17,0-.34-.06-.54a1.11,1.11,0,0,0-.11.11,1.56,1.56,0,0,1-2.19.17,1.12,1.12,0,0,1-.33-1.07,1.15,1.15,0,0,1,.71-.91,2.32,2.32,0,0,1,.82-.18l.8,0H48a.67.67,0,0,0-.47-.82,1.77,1.77,0,0,0-1.26.14c-.12.05-.23.12-.36.19a.81.81,0,0,1,0-.41c0-.13,0-.27,0-.41a2.4,2.4,0,0,1,.74-.25,3.14,3.14,0,0,1,1.33,0,1.17,1.17,0,0,1,1,.93,4,4,0,0,1,.07.5c0,.29,0,.58,0,.86,0,.52,0,1,0,1.55V22m-1-1.83a7.75,7.75,0,0,0-.84,0,1.36,1.36,0,0,0-.51.15.54.54,0,0,0-.28.61.43.43,0,0,0,.36.39.93.93,0,0,0,1-.24,1.26,1.26,0,0,0,.31-.92"/><path class="cls-1" d="M26.3,21.43l-.11.12a1.56,1.56,0,0,1-2.17.17,1,1,0,0,1-.34-.64,1.22,1.22,0,0,1,.75-1.37,3.33,3.33,0,0,1,1.21-.18h.61a.7.7,0,0,0-.7-.87,2.12,2.12,0,0,0-1.23.29l-.18.11c0-.29,0-.56,0-.82l.09-.06A3.19,3.19,0,0,1,26.12,18a1.22,1.22,0,0,1,1.06,1.23,3.1,3.1,0,0,1,0,.43l0,1.85a4.75,4.75,0,0,0,0,.51h-.9c0-.17,0-.34-.07-.54m0-1.3a4.49,4.49,0,0,0-.9,0,2,2,0,0,0-.43.13.54.54,0,0,0-.29.59.42.42,0,0,0,.35.41.92.92,0,0,0,1.15-.48,1.26,1.26,0,0,0,.12-.68"/><path class="cls-1" d="M10,21.89c0-.26,0-.52.06-.8l.2.08a1.9,1.9,0,0,0,1,.15,1,1,0,0,0,.29-.1.37.37,0,0,0,.05-.65,3.35,3.35,0,0,0-.53-.28l-.43-.16A1.09,1.09,0,0,1,10,18.77a1,1,0,0,1,.44-.58,1.75,1.75,0,0,1,.79-.28,3.76,3.76,0,0,1,1.41.13l-.06.74a5.2,5.2,0,0,0-.51-.11,2.6,2.6,0,0,0-.56,0,.75.75,0,0,0-.35.13.31.31,0,0,0,0,.53,2.89,2.89,0,0,0,.43.22l.75.32a.78.78,0,0,1,.47.66,1.64,1.64,0,0,1,0,.66,1,1,0,0,1-.43.58,1.76,1.76,0,0,1-.84.31,3.88,3.88,0,0,1-1.44-.13s-.05,0-.08,0"/><path class="cls-1" d="M44,18h.91a4.57,4.57,0,0,1,0,.74H44a1.54,1.54,0,0,0,0,.19c0,.58,0,1.17,0,1.75A1.22,1.22,0,0,0,44,21a.33.33,0,0,0,.33.24,4.73,4.73,0,0,0,.53,0,1.92,1.92,0,0,1,0,.75,1.19,1.19,0,0,1-.26.05,4.7,4.7,0,0,1-.75,0,1.1,1.1,0,0,1-1-1.08c0-.14,0-.28,0-.42V18.75c-.25-.05-.49,0-.73,0a1.76,1.76,0,0,1,0-.73h.73v-.8l1-.33Z"/><path class="cls-1" d="M21.2,18v-.81l1-.33V18c.31,0,.62,0,.92,0v.72c-.29,0-.59,0-.9,0a1.41,1.41,0,0,0,0,.18c0,.58,0,1.16,0,1.74a1,1,0,0,0,.06.35.36.36,0,0,0,.36.27c.17,0,.34,0,.54,0,0,.22,0,.47,0,.71S23,22,22.93,22a2.37,2.37,0,0,1-.84,0,1,1,0,0,1-.85-.9,1.81,1.81,0,0,1,0-.4V19c0-.07,0-.14,0-.23h-.76V18Z"/><path class="cls-1" d="M59.34,18c0,.13,0,.24,0,.34s0,.28-.06.44l-.18-.05a1.32,1.32,0,0,0-.71-.05,1,1,0,0,0-.83.87,1.65,1.65,0,0,0,0,1,1,1,0,0,0,1.33.73c.14,0,.29-.09.44-.13a2.41,2.41,0,0,1,0,.83c-.14,0-.29.07-.44.09a3.57,3.57,0,0,1-1.13,0,1.71,1.71,0,0,1-1.27-1.18,2.74,2.74,0,0,1,0-1.58A1.75,1.75,0,0,1,58.3,17.9a7.93,7.93,0,0,1,.84.07l.2.05"/><path class="cls-1" d="M29.19,22h-1c0-.15-.06-5.12,0-5.41a7.37,7.37,0,0,1,.94,0c0,.15.06,5.1,0,5.42"/><path class="cls-1" d="M38.21,18.77c.3-.6.68-1,1.38-.85v1l-.37,0a.7.7,0,0,0-.78.53,2.78,2.78,0,0,0-.13.71c0,.53,0,1.07,0,1.61,0,.08,0,.16,0,.25h-1c0-.14-.06-3.57,0-4,.28,0,.56,0,.85,0,.07.26,0,.51.06.79"/><path class="cls-1" d="M19.5,22h-1c0-.14-.06-3.59,0-3.95a3.4,3.4,0,0,1,1,0c.05.13.07,3.62,0,4"/><path class="cls-1" d="M54.6,18h1v3.94a3.44,3.44,0,0,1-1,0c0-.14,0-3.72,0-4"/><path class="cls-1" d="M41.38,22h-1s0,0,0,0h0a.5.5,0,0,1,0-.12V18.09a.24.24,0,0,1,0-.08,4.1,4.1,0,0,1,1,0Z"/><path class="cls-1" d="M19.51,16.44v.95h-1v-.95c.33,0,.66,0,1,0"/><path class="cls-1" d="M54.59,17.39v-.94h1v.94a8.34,8.34,0,0,1-1,0"/><path class="cls-1" d="M41.37,16.46v.93h-1a3,3,0,0,1,0-.92,4,4,0,0,1,1,0"/><path class="cls-1" d="M47.3,16.4h.94a.44.44,0,0,1-.06.1l-.74.8a.28.28,0,0,1-.23.1h-.44a5.5,5.5,0,0,1,.53-1"/></g></g></svg>